<?xml version="1.0" encoding="UTF-8" standalone="no"?>
<svg
   xmlns:dc="http://purl.org/dc/elements/1.1/"
   xmlns:cc="http://creativecommons.org/ns#"
   xmlns:rdf="http://www.w3.org/1999/02/22-rdf-syntax-ns#"
   xmlns:svg="http://www.w3.org/2000/svg"
   xmlns="http://www.w3.org/2000/svg"
   xmlns:sodipodi="http://sodipodi.sourceforge.net/DTD/sodipodi-0.dtd"
   xmlns:inkscape="http://www.inkscape.org/namespaces/inkscape"
   inkscape:version="1.0 (4035a4fb49, 2020-05-01)"
   sodipodi:docname="Group 34.svg"
   id="svg24"
   version="1.1"
   viewBox="0 0 114.997 147.025"
   height="147.025"
   width="114.997">
  <metadata
     id="metadata30">
    <rdf:RDF>
      <cc:Work
         rdf:about="">
        <dc:format>image/svg+xml</dc:format>
        <dc:type
           rdf:resource="http://purl.org/dc/dcmitype/StillImage" />
      </cc:Work>
    </rdf:RDF>
  </metadata>
  <defs
     id="defs28" />
  <sodipodi:namedview
     inkscape:current-layer="g22"
     inkscape:window-maximized="1"
     inkscape:window-y="-8"
     inkscape:window-x="-8"
     inkscape:cy="19.120154"
     inkscape:cx="-216.14848"
     inkscape:zoom="1.4453325"
     showgrid="false"
     id="namedview26"
     inkscape:window-height="1017"
     inkscape:window-width="1920"
     inkscape:pageshadow="2"
     inkscape:pageopacity="0"
     guidetolerance="10"
     gridtolerance="10"
     objecttolerance="10"
     borderopacity="1"
     bordercolor="#666666"
     pagecolor="#ffffff" />
  <g
     id="g22">
    <g
       id="g18">
      <path
         id="path2"
         transform="translate(46.554)"
         d="M 10.9,0 C 8.606,6.494 0,10.311 0,10.311 h 21.89 c 0,0 -8.806,-3.76 -10.99,-10.311 z" />
      <path
         id="path4"
         transform="translate(29.916,24.919)"
         d="M 27.459,0 C 21.691,16.367 0,25.986 0,25.986 h 55.169 c 0,0 -22.193,-9.476 -27.71,-25.986 z" />
      <path
         id="path6"
         transform="translate(44.144,5.011)"
         d="M 13.3,0 C 10.5,7.924 0,12.582 0,12.582 H 26.712 C 26.712,12.582 15.966,7.994 13.3,0 Z" />
      <path
         id="path8"
         transform="translate(23.84,37.547)"
         d="M 33.508,0 C 26.469,19.972 0,31.71 0,31.71 h 67.322 c 0,0 -27.082,-11.563 -33.814,-31.71 z" />
      <path
         id="path10"
         transform="translate(39.431,10.356)"
         d="M 17.986,0 C 14.208,10.72 0,17.02 0,17.02 h 36.135 c 0,0 -14.535,-6.206 -18.149,-17.02 z" />
      <path
         id="path12"
         transform="translate(11.963,51.019)"
         d="M 45.329,0 C 35.809,27.018 0,42.9 0,42.9 h 91.072 c 0,0 -36.636,-15.645 -45.743,-42.9 z" />
      <path
         id="path14"
         transform="translate(34.685,16.63)"
         d="M 22.711,0 C 17.941,13.536 0,21.492 0,21.492 h 45.628 c 0,0 -18.354,-7.837 -22.917,-21.492 z" />
      <path
         id="path16"
         transform="translate(0,66.832)"
         d="M 57.238,0 C 45.218,34.116 0,54.165 0,54.165 H 115 C 115,54.165 68.738,34.415 57.238,0 Z" />
    </g>
    <rect
       y="121.025"
       x="54.342999"
       id="rect20"
       height="26"
       width="6" />
  </g>
</svg>
